M48
;DRILL file {KiCad 4.0.5+dfsg1-4} date Sat Feb 18 23:12:49 2017
;FORMAT={-:-/ absolute / metric / decimal}
FMAT,2
METRIC,TZ
T1C0.762
T2C0.800
T3C1.000
T4C1.016
T5C1.200
T6C3.200
%
G90
G05
M71
T1
X141.98Y-78.02
X141.98Y-80.56
X141.98Y-83.1
X141.98Y-85.64
X141.98Y-88.18
X141.98Y-90.72
X141.98Y-93.26
X141.98Y-95.8
X141.98Y-98.34
X141.98Y-100.88
X141.98Y-103.42
X141.98Y-105.96
X141.98Y-108.5
X141.98Y-111.04
X141.98Y-113.58
X157.22Y-78.02
X157.22Y-80.56
X157.22Y-83.1
X157.22Y-85.64
X157.22Y-88.18
X157.22Y-90.72
X157.22Y-93.26
X157.22Y-95.8
X157.22Y-98.34
X157.22Y-100.88
X157.22Y-103.42
X157.22Y-105.96
X157.22Y-108.5
X157.22Y-111.04
X157.22Y-113.58
T2
X144.34Y-78.2
X144.34Y-94.9
X144.54Y-99.6
X144.7Y-85.2
X154.5Y-78.2
X154.5Y-94.9
X154.7Y-99.6
X154.86Y-85.2
X162.3Y-77.84
X162.3Y-88.
T3
X132.5Y-112.2
X136.Y-112.2
X162.4Y-112.
X165.9Y-112.
T4
X141.02Y-119.9
X143.56Y-119.9
X146.1Y-119.9
X150.6Y-120.1
X153.14Y-120.1
X155.68Y-120.1
T5
X132.2Y-78.4
X132.2Y-81.9
X132.2Y-85.4
X132.2Y-88.9
X132.2Y-92.4
X132.2Y-95.9
X132.2Y-99.4
X132.2Y-102.9
X167.6Y-77.9
X167.6Y-81.4
X167.6Y-84.9
X167.6Y-88.4
X167.6Y-91.9
X167.6Y-95.4
X167.6Y-98.9
X167.6Y-102.4
T6
X128.3Y-74.5
X128.9Y-120.8
X169.3Y-120.4
X170.8Y-74.5
T0
M30
